<svg width="204" height="38" viewBox="0 0 204 38" fill="none" xmlns="http://www.w3.org/2000/svg">
<path d="M90.1758 19L92.9688 5.03516H103.76L100.967 19H99.9414L102.559 5.91406H93.8184L91.2012 19H90.1758ZM114.404 8.74609L112.354 19H111.328L111.943 15.9336C110.335 17.9779 108.61 19 106.768 19C104.99 19 104.3 18.0072 104.697 16.0215L106.152 8.74609H107.178L105.723 16.0215C105.449 17.3952 105.876 18.082 107.002 18.082C108.818 18.082 110.537 16.998 112.158 14.8301L113.379 8.74609H114.404ZM115.488 19L117.539 8.74609H118.369L117.959 11.793C119.287 9.76172 120.758 8.74609 122.373 8.74609C124.261 8.74609 125.007 9.73568 124.609 11.7148C125.996 9.73568 127.49 8.74609 129.092 8.74609C130.993 8.74609 131.725 9.83659 131.289 12.0176L129.893 19H128.867L130.264 12.0176C130.576 10.4486 130.12 9.66406 128.896 9.66406C127.217 9.66406 125.739 10.7578 124.463 12.9453L123.252 19H122.227L123.623 12.0176C123.936 10.4486 123.454 9.66406 122.178 9.66406C120.576 9.66406 119.092 10.7578 117.725 12.9453L116.514 19H115.488ZM139.209 8.74609C141.696 8.74609 142.76 9.63802 142.402 11.4219C142.031 13.2708 140.641 14.1953 138.232 14.1953H134.521C134.001 16.8125 134.964 18.1211 137.412 18.1211C138.773 18.1211 139.997 17.6654 141.084 16.7539L140.889 17.7305C139.814 18.5768 138.597 19 137.236 19C134.105 19 132.887 17.252 133.584 13.7559C134.255 10.416 136.13 8.74609 139.209 8.74609ZM134.707 13.2773H138.398C140.137 13.2773 141.133 12.6491 141.387 11.3926C141.621 10.2012 140.837 9.60547 139.033 9.60547C136.755 9.60547 135.312 10.8294 134.707 13.2773ZM144.805 17.7988C145.879 17.9876 146.839 18.082 147.686 18.082C149.964 18.082 151.41 16.5553 152.021 13.502C152.523 10.9824 151.969 9.72266 150.361 9.72266C148.968 9.72266 147.487 10.5495 145.918 12.2031L144.805 17.7988ZM145.586 8.75586H146.416L146.123 11.1875C147.744 9.5599 149.258 8.74609 150.664 8.74609C152.865 8.74609 153.643 10.3542 152.998 13.5703C152.275 17.1901 150.472 19 147.588 19C146.514 19 145.521 18.9251 144.609 18.7754L143.818 22.7109H142.793L145.586 8.75586ZM164.512 13.9219C163.822 17.3724 161.953 19.0977 158.906 19.0977C155.762 19.0977 154.535 17.3724 155.225 13.9219L155.859 10.748C156.621 6.93945 158.74 5.03516 162.217 5.03516C163.597 5.03516 164.915 4.68034 166.172 3.9707L165.967 4.97656C164.847 5.60156 163.529 5.91406 162.012 5.91406C159.271 5.91406 157.585 7.49284 156.953 10.6504C157.995 9.38086 159.368 8.74609 161.074 8.74609C164.056 8.74609 165.218 10.3932 164.561 13.6875L164.512 13.9219ZM159.082 18.2188C161.439 18.2188 162.904 16.7865 163.477 13.9219C164.043 11.0964 163.18 9.68359 160.889 9.68359C158.395 9.68359 156.865 11.0964 156.299 13.9219C155.726 16.7865 156.654 18.2188 159.082 18.2188ZM166.885 8.74609H168.066L170.02 18.0039L175.625 8.74609H176.758L170.195 19.3027C169.062 21.1647 167.695 22.3268 166.094 22.7891L165.957 21.9688C167.227 21.5391 168.32 20.6016 169.238 19.1562L166.885 8.74609ZM177.793 17.7988C178.867 17.9876 179.827 18.082 180.674 18.082C182.952 18.082 184.398 16.5553 185.01 13.502C185.511 10.9824 184.958 9.72266 183.35 9.72266C181.956 9.72266 180.475 10.5495 178.906 12.2031L177.793 17.7988ZM178.574 8.75586H179.404L179.111 11.1875C180.732 9.5599 182.246 8.74609 183.652 8.74609C185.853 8.74609 186.631 10.3542 185.986 13.5703C185.264 17.1901 183.46 19 180.576 19C179.502 19 178.509 18.9251 177.598 18.7754L176.807 22.7109H175.781L178.574 8.75586ZM191.23 13.873L188.271 8.74609H189.443L191.943 13.082L196.182 8.74609H197.451L192.451 13.873L195.4 19H194.229L191.729 14.6641L187.49 19H186.221L191.23 13.873Z" fill="#FEFEFF"/>
<path d="M19.0156 18.5117C17.668 18.9023 16.3268 19.0977 14.9922 19.0977C10.1094 19.0977 8.15299 16.6725 9.12305 11.8223C10.041 7.23242 12.9414 4.9375 17.8242 4.9375C19.1589 4.9375 20.4219 5.13281 21.6133 5.52344L21.4375 6.40234C20.2461 6.01172 19.0482 5.81641 17.8438 5.81641C13.5143 5.81641 10.9492 7.81836 10.1484 11.8223C9.29557 16.0866 11.0339 18.2188 15.3633 18.2188C16.5677 18.2188 17.8438 18.0234 19.1914 17.6328L19.0156 18.5117ZM30.5781 9.89844C29.7318 9.74219 28.8529 9.66406 27.9414 9.66406C25.5 9.66406 23.9993 11.0736 23.4395 13.8926C22.8861 16.6465 23.446 18.0234 25.1191 18.0234C26.7077 18.0234 28.153 17.1966 29.4551 15.543L30.5781 9.89844ZM29.7871 19H28.957L29.25 16.5586C27.8958 18.1862 26.4505 19 24.9141 19C22.5833 19 21.7565 17.304 22.4336 13.9121C23.1237 10.4681 25.0475 8.74609 28.2051 8.74609C29.5918 8.74609 30.7734 8.88607 31.75 9.16602L29.7871 19ZM32.8242 19L34.875 8.74609H35.9004L34.9824 13.3359H40.9883L41.9062 8.74609H42.9316L40.8809 19H39.8555L40.8125 14.2148H34.8066L33.8496 19H32.8242ZM46.8965 8.74609L44.8457 19H43.8203L45.8711 8.74609H46.8965ZM50.5098 19L49.5527 16.5977C48.9538 14.7943 48.0423 13.8926 46.8184 13.8926L46.9355 13.2773C48.1725 13.2773 49.1816 12.5221 49.9629 11.0117C50.7441 9.5013 51.7793 8.74609 53.0684 8.74609H53.8203L53.6445 9.625H52.873C52.1048 9.625 51.4017 10.2174 50.7637 11.4023C50.1322 12.5807 49.3867 13.2969 48.5273 13.5508C49.1849 13.7526 49.8815 14.7096 50.6172 16.4219L51.7207 19H50.5098ZM53.5859 19L55.6367 8.74609H56.4668L56.0566 11.793C57.3848 9.76172 58.8561 8.74609 60.4707 8.74609C62.3587 8.74609 63.1042 9.73568 62.707 11.7148C64.0938 9.73568 65.5879 8.74609 67.1895 8.74609C69.0905 8.74609 69.8229 9.83659 69.3867 12.0176L67.9902 19H66.9648L68.3613 12.0176C68.6738 10.4486 68.2181 9.66406 66.9941 9.66406C65.3145 9.66406 63.8366 10.7578 62.5605 12.9453L61.3496 19H60.3242L61.7207 12.0176C62.0332 10.4486 61.5514 9.66406 60.2754 9.66406C58.6738 9.66406 57.1895 10.7578 55.8223 12.9453L54.6113 19H53.5859Z" fill="#FEFEFF"/>
<rect x="75" y="15" width="4" height="4" fill="#BBD5F7" fill-opacity="0.84"/>
<rect x="81" y="9" width="4" height="4" fill="#BBD5F7" fill-opacity="0.84"/>
<path d="M75 10C75 9.44772 75.4477 9 76 9H79V12C79 12.5523 78.5523 13 78 13H75V10Z" fill="#FEFEFF"/>
<path d="M81 16C81 15.4477 81.4477 15 82 15H85V18C85 18.5523 84.5523 19 84 19H81V16Z" fill="#FEFEFF"/>
<path d="M194.95 22.4268C194.27 23.3153 192.9 23.8455 191.979 24.4143C188.307 26.6819 184.592 28.9443 180.781 30.9494C177.463 32.695 173.846 34.3185 170.194 35.1006C168.748 35.4103 166.663 35.8376 165.268 35.1719C164.432 34.7732 164.009 34.0613 164.76 33.2238C165.725 32.1467 167.25 31.6351 168.554 31.2327C172.052 30.153 175.736 29.7925 179.342 29.4788C185.558 28.938 191.755 28.8818 197.959 29.2006C199.475 29.2786 200.986 29.4233 202.502 29.496C202.7 29.5054 202.746 29.4978 202.876 29.3818" stroke="#BBD5F7" stroke-opacity="0.84" stroke-width="0.75" stroke-linecap="round"/>
</svg>
