<svg width="72" height="72" viewBox="0 0 72 72" fill="none" xmlns="http://www.w3.org/2000/svg">
<g clip-path="url(#clip0_576_2815)">
<path d="M24.6976 42.4724C23.2365 42.4724 21.8554 42.2327 20.5542 41.7533C19.2758 41.2739 18.2372 40.5891 17.4382 39.6988C16.6392 38.8085 16.2397 37.7584 16.2397 36.5485C16.2397 36.1604 16.3082 35.7495 16.4452 35.3158C16.6278 34.7222 16.8332 34.4255 17.0615 34.4255C17.4039 34.4255 17.5751 34.6195 17.5751 35.0076C17.5751 35.1674 17.5295 35.3843 17.4382 35.6582C17.3469 35.9321 17.3012 36.1947 17.3012 36.4458C17.3012 37.4502 17.6436 38.3291 18.3285 39.0824C19.0133 39.8129 19.8922 40.3722 20.9651 40.7603C22.0609 41.1484 23.2023 41.3424 24.3894 41.3424C26.969 41.3424 29.1605 40.7261 30.9639 39.4933C31.8999 38.8541 32.676 38.0894 33.2924 37.1991C33.9087 36.286 34.2169 35.3158 34.2169 34.2885C34.2169 33.3525 33.9772 32.5764 33.4978 31.96C33.0413 31.3437 32.4021 30.8186 31.5803 30.3849C30.7584 29.9283 29.8111 29.5174 28.7381 29.1522C25.6792 28.0792 24.1497 26.778 24.1497 25.2485C24.1497 24.4267 24.4579 23.6391 25.0742 22.8858C25.6906 22.1325 26.4439 21.4705 27.3342 20.8998C28.2245 20.3062 29.0806 19.8611 29.9024 19.5643C31.1123 19.1077 32.2309 18.7996 33.2581 18.6398C34.3082 18.4571 35.2784 18.3658 36.1687 18.3658C37.3786 18.3658 38.2347 18.6512 38.7369 19.2219C39.2391 19.7698 39.4902 20.4546 39.4902 21.2764C39.4902 21.9156 39.3304 22.532 39.0108 23.1255C38.7141 23.719 38.3032 24.2327 37.7781 24.6664C37.1846 25.1686 36.7052 25.4197 36.3399 25.4197C35.9519 25.4197 35.7578 25.2371 35.7578 24.8719C35.7578 24.6664 35.8606 24.518 36.066 24.4267C37.5955 23.6506 38.3602 22.589 38.3602 21.2422C38.3602 20.6486 38.189 20.2149 37.8466 19.941C37.527 19.6442 36.9677 19.4958 36.1687 19.4958C35.4382 19.4958 34.6164 19.5757 33.7033 19.7355C32.813 19.8953 31.8999 20.135 30.9639 20.4546C30.1421 20.7514 29.3089 21.1509 28.4642 21.6531C27.6196 22.1553 26.9119 22.7032 26.3412 23.2967C25.7933 23.8902 25.5194 24.4838 25.5194 25.0773C25.5194 26.3329 26.7293 27.3373 29.1491 28.0906C33.3266 29.4147 35.4154 31.4464 35.4154 34.1858C35.4154 35.0076 35.2214 35.818 34.8333 36.617C34.468 37.416 33.9772 38.1465 33.3609 38.8085C32.7673 39.4705 32.1281 40.0412 31.4433 40.5206C30.4617 41.2055 29.3888 41.6963 28.2245 41.993C27.0831 42.3126 25.9074 42.4724 24.6976 42.4724Z" fill="#FEFEFF"/>
<path d="M34.9916 54.9515C33.9187 54.9515 33.3823 54.1867 33.3823 52.6573C33.3823 50.6484 34.2611 47.4524 36.0189 43.0694C36.3157 42.3389 36.6695 41.5742 37.0804 40.7752C37.4913 39.9762 37.9707 39.1315 38.5186 38.2412C39.0893 37.2825 39.6258 36.4492 40.128 35.7415C40.653 35.0339 41.1096 34.4632 41.4977 34.0294C41.6347 33.8925 41.7488 33.8011 41.8401 33.7555C41.9543 33.7098 42.0456 33.687 42.1141 33.687C42.7076 33.687 43.381 33.8582 44.1344 34.2006C44.8877 34.5431 45.5611 34.9768 46.1546 35.5018C46.7025 35.9584 47.1477 36.5063 47.4901 37.1455C47.8325 37.7847 48.0037 38.4467 48.0037 39.1315C48.0037 39.6338 47.901 40.1474 47.6956 40.6724C47.5129 41.1747 47.2618 41.6769 46.9422 42.1791C47.5358 42.065 48.2548 41.8024 49.0995 41.3915C49.967 40.9806 50.8459 40.3528 51.7362 39.5082C51.8275 39.4169 51.953 39.3712 52.1128 39.3712C52.4552 39.3712 52.6265 39.5082 52.6265 39.7821C52.6265 39.8963 52.5694 40.0447 52.4552 40.2273C52.3639 40.3871 52.1927 40.5925 51.9416 40.8437C50.2523 42.396 48.2206 43.2863 45.8465 43.5146C45.504 43.8798 45.1274 44.2336 44.7165 44.5761C44.3284 44.8957 43.9175 45.1924 43.4837 45.4664C42.1597 46.2654 41.0297 46.6648 40.0938 46.6648C39.7057 46.6648 39.3861 46.5393 39.135 46.2882C38.8839 46.0371 38.7583 45.7517 38.7583 45.4321C38.7583 44.382 39.6714 43.583 41.4977 43.0352C42.1597 42.8525 42.8217 42.6927 43.4837 42.5558C44.1458 42.4188 44.7964 42.2704 45.4356 42.1106C45.8921 41.4029 46.2231 40.7866 46.4286 40.2615C46.6569 39.7365 46.771 39.2913 46.771 38.9261C46.771 37.7162 45.8693 36.5634 44.0659 35.4676C43.3582 35.0339 42.7989 34.8284 42.388 34.8512C40.5161 36.9058 38.7469 39.7821 37.0804 43.4803C35.3455 47.2926 34.478 50.2945 34.478 52.486C34.478 53.0111 34.5237 53.3649 34.615 53.5476C34.7063 53.7302 34.8661 53.8215 35.0944 53.8215C35.1629 53.8215 35.2199 53.8101 35.2656 53.7873C35.3112 53.7873 35.3569 53.7873 35.4026 53.7873C35.6993 53.7873 35.8477 53.9699 35.8477 54.3351C35.8477 54.746 35.5624 54.9515 34.9916 54.9515ZM40.3335 45.5691C41.1781 45.5691 42.3994 44.9071 43.9974 43.583C43.6321 43.6287 43.2783 43.6858 42.9359 43.7543C42.6163 43.8227 42.1483 43.9483 41.5319 44.1309C40.5047 44.4277 39.991 44.8043 39.991 45.2609C39.991 45.4664 40.1052 45.5691 40.3335 45.5691Z" fill="#FEFEFF"/>
<path d="M67.4843 30.5676C67.5708 31.1106 67.6432 31.6548 67.7015 32.1998L67.2075 32.2448L67.2529 32.7428C67.332 33.6092 67.3749 34.4771 67.3821 35.3442L67.3862 35.8442L67.8823 35.8401C67.8782 36.3894 67.86 36.9381 67.8278 37.4858L67.333 37.4489L67.2959 37.9475C67.2312 38.8137 67.1308 39.6769 66.9949 40.5348L66.9166 41.0286L67.4066 41.1062C67.3123 41.6467 67.204 42.185 67.0819 42.7205L66.6 42.6026L66.4812 43.0883C66.2752 43.9306 66.0341 44.7655 65.7583 45.5906L65.5998 46.0649L66.0703 46.2221C65.8884 46.7391 65.693 47.2522 65.4841 47.7608L65.0282 47.5652L64.8311 48.0247C64.6601 48.4231 64.4807 48.8186 64.2928 49.2109C64.1049 49.6032 63.9092 49.991 63.706 50.3739L63.4715 50.8155L63.9097 51.0481C63.6444 51.5297 63.3671 52.0036 63.0782 52.4693L62.6608 52.2013L62.3906 52.6221C61.9206 53.3542 61.4212 54.0654 60.894 54.7539L60.5901 55.1509L60.984 55.4525C60.6433 55.8833 60.2918 56.305 59.9298 56.7173L59.5622 56.3842L59.2264 56.7547C58.6432 57.3984 58.0336 58.0177 57.3992 58.611L57.034 58.9525L57.3729 59.3149C56.9664 59.6833 56.5502 60.0415 56.1248 60.3889L55.8171 59.9998L55.4249 60.31C54.7448 60.848 54.0416 61.3585 53.317 61.84L52.9006 62.1168L53.1751 62.53C52.714 62.8261 52.2445 63.1108 51.7672 63.3838L51.5277 62.9493L51.0898 63.1907C50.7102 63.4 50.3256 63.6017 49.9363 63.7958C49.547 63.9898 49.1544 64.1755 48.7587 64.3527L48.3024 64.5571L48.5052 65.0099C47.9999 65.2267 47.49 65.4302 46.9759 65.6202L46.8112 65.1522L46.3396 65.3182C45.5188 65.607 44.6879 65.8612 43.8489 66.0805L43.3652 66.2069L43.4906 66.6869C42.9571 66.8175 42.4207 66.9342 41.8817 67.0371L41.7964 66.5484L41.3038 66.6344C40.4482 66.7839 39.5867 66.8979 38.7216 66.9762L38.2237 67.0212L38.2684 67.5153C37.7212 67.5562 37.1729 67.5831 36.6238 67.5958L36.62 67.0997L36.1201 67.1035C35.2529 67.11 34.3845 67.0807 33.5169 67.0154L33.0183 66.9778L32.981 67.4725C32.4352 67.4228 31.8899 67.359 31.3456 67.281L31.4236 66.7911L30.9299 66.7125C30.5017 66.6443 30.0743 66.5672 29.6479 66.4811C29.2216 66.395 28.7977 66.3002 28.3767 66.1969L27.8911 66.0777L27.7729 66.5595C27.241 66.4202 26.7136 66.2674 26.1913 66.1014L26.3489 65.631L25.8748 65.4722C25.0499 65.1957 24.2381 64.8857 23.4415 64.5432L22.9821 64.3457L22.7862 64.8014C22.285 64.5766 21.7901 64.3391 21.3017 64.0891L21.5346 63.6511L21.0931 63.4163C20.3262 63.0085 19.5765 62.5691 18.8459 62.0993L18.4254 61.8289L18.1571 62.2462C17.7003 61.9422 17.2511 61.6265 16.8101 61.2991L17.112 60.9054L16.7152 60.6012C16.0271 60.0735 15.3599 59.5168 14.7155 58.9321L14.3453 58.5961L14.0119 58.9635C13.6118 58.5889 13.2208 58.2035 12.8393 57.8076L13.2019 57.469L12.8606 57.1035C12.5647 56.7867 12.2749 56.4632 11.9915 56.1333C11.708 55.8034 11.4318 55.4682 11.1631 55.128L10.8532 54.7356L10.4639 55.0431C10.1299 54.6063 9.80773 54.1617 9.49763 53.7098L9.91102 53.4356L9.63459 53.0189C9.15359 52.2939 8.70364 51.5505 8.28559 50.7908L8.04454 50.3527L7.60991 50.5919C7.35268 50.1066 7.10811 49.6151 6.87642 49.1177L7.32933 48.9153L7.12529 48.4588C6.77084 47.6658 6.44933 46.8585 6.16159 46.039L5.99596 45.5672L5.52788 45.7315C5.35424 45.2111 5.19392 44.686 5.04712 44.1567L5.52718 44.0316L5.40109 43.5478C5.18241 42.7086 4.99811 41.8594 4.84902 41.0023L4.76334 40.5097L4.27458 40.5947C4.18912 40.0533 4.11744 39.509 4.05975 38.9622L4.55386 38.9178L4.50918 38.4198C4.47044 37.988 4.44055 37.5548 4.41961 37.1203C4.39868 36.6858 4.38678 36.2517 4.38383 35.8181L4.38043 35.3181L3.88434 35.3215C3.88919 34.7717 3.90821 34.223 3.94123 33.6759L4.43589 33.7136L4.47382 33.215C4.53981 32.3474 4.64161 31.4845 4.77861 30.6282L4.8576 30.1345L4.36773 30.0561C4.46297 29.5152 4.57206 28.9771 4.69486 28.4424L5.17658 28.561L5.29609 28.0754C5.5037 27.232 5.7461 26.3975 6.02268 25.5741L6.18188 25.1002L5.71161 24.9422C5.89441 24.4249 6.09059 23.9121 6.29997 23.4043L6.75559 23.6006L6.9534 23.1414C7.29648 22.345 7.67287 21.5618 8.08195 20.7939L8.31703 20.3526L7.8792 20.1194C8.14441 19.6398 8.42233 19.1663 8.7128 18.6994L9.12987 18.9681L9.40062 18.5477C9.63538 18.1832 9.87803 17.823 10.1285 17.4674C10.3789 17.1117 10.6363 16.7619 10.9004 16.4181L11.2049 16.0215L10.8114 15.7193C11.1531 15.2886 11.5052 14.8673 11.8675 14.456L12.2346 14.7896L12.5709 14.4196C13.156 13.7757 13.7666 13.1574 14.4008 12.566L14.7665 12.2251L14.4282 11.8622C14.8357 11.494 15.2524 11.1365 15.6778 10.7901L15.985 11.1796L16.3776 10.87C17.0597 10.3322 17.7637 9.82273 18.4878 9.34306L18.9047 9.06694L18.6307 8.65336C19.0928 8.35755 19.5626 8.07351 20.0398 7.80158L20.2787 8.23639L20.7169 7.99565C21.4769 7.57814 22.2551 7.1915 23.0497 6.83703L23.5063 6.63333L23.3042 6.18027C23.8082 5.96484 24.3184 5.76204 24.8344 5.57221L24.9984 6.04042L25.4703 5.87514C25.8795 5.73183 26.2922 5.59676 26.7083 5.47006C27.1245 5.34337 27.5425 5.22551 27.9621 5.11649L28.446 4.99075L28.3213 4.5106C28.8555 4.38066 29.3922 4.26472 29.9307 4.16277L30.0153 4.65158L30.508 4.56626C31.3653 4.41779 32.2269 4.30517 33.0906 4.22831L33.5887 4.18399L33.5447 3.68984C34.0925 3.64972 34.6409 3.62372 35.1894 3.61183L35.1924 4.10791L35.6924 4.10489C36.561 4.09964 37.4294 4.13031 38.2955 4.19682L38.794 4.23511L38.832 3.74047C39.3783 3.79103 39.9236 3.85565 40.4671 3.93432L40.3884 4.42413L40.8821 4.50347C41.7382 4.64108 42.5898 4.81421 43.4344 5.02278L43.9199 5.14265L44.0388 4.66102C44.5688 4.80071 45.0959 4.95421 45.6197 5.12152L45.4613 5.59167L45.9352 5.75124C46.1885 5.83655 46.441 5.92516 46.6926 6.01707L46.6203 6.2055L46.5501 6.38865L46.475 6.58456C46.0976 6.4468 45.7181 6.31662 45.3367 6.19402L44.8607 6.041L44.7064 6.52093C43.9546 6.29284 43.1958 6.09448 42.4319 5.92591L42.5324 5.43191L42.0425 5.33223C40.9277 5.10542 39.8029 4.94071 38.6733 4.83827L38.1753 4.79312L38.1298 5.29517C37.348 5.23722 36.5642 5.20954 35.7802 5.21219L35.7702 4.70818L35.2703 4.71809C34.1363 4.74058 33.0027 4.82553 31.8747 4.97314L31.3789 5.03801L31.4443 5.53786C30.6704 5.65212 29.8995 5.79646 29.1335 5.97095L29.0135 5.48133L28.5279 5.60039C27.9775 5.73532 27.4298 5.88566 26.8853 6.05141C26.3409 6.21717 25.8023 6.39757 25.2702 6.59224L24.8006 6.76401L24.9738 7.23744C24.2405 7.51944 23.52 7.82916 22.8137 8.16557L22.5895 7.71408L22.1416 7.93649C21.1228 8.44252 20.1342 9.00371 19.18 9.61698L18.7594 9.88733L19.032 10.3114C18.3796 10.7461 17.7442 11.2059 17.1273 11.6897L16.8097 11.2982L16.4214 11.6132C15.5405 12.3277 14.6983 13.0913 13.8991 13.9008L13.5478 14.2567L13.9066 14.6108C13.3662 15.1765 12.8467 15.764 12.3496 16.3724L11.9541 16.0599L11.6441 16.4522C11.2928 16.8968 10.953 17.352 10.6253 17.8173C10.2977 18.2826 9.9836 18.7558 9.68335 19.2364L9.41842 19.6605L9.84596 19.9276C9.4407 20.6006 9.06258 21.2877 8.71207 21.9871L8.25773 21.7687L8.04109 22.2193C7.5482 23.2446 7.11305 24.2948 6.73711 25.3649L6.57139 25.8367L7.04701 26.0037C6.79936 26.7476 6.58058 27.5007 6.39116 28.2615L5.90005 28.1478L5.78724 28.6349C5.53134 29.7399 5.3361 30.8598 5.20298 31.9896L5.14447 32.4861L5.64513 32.5451C5.56638 33.3234 5.51756 34.1062 5.49914 34.8916L4.99504 34.8881L4.99155 35.3881C4.98759 35.9547 4.99922 36.5226 5.02661 37.091C5.054 37.6595 5.09702 38.2258 5.15544 38.7895L5.20698 39.2868L5.70841 39.2349C5.80224 40.0149 5.92609 40.7893 6.0793 41.5564L5.58664 41.6633L5.69262 42.1519C5.93374 43.2637 6.23574 44.3596 6.59669 45.4349L6.75581 45.9089L7.23371 45.7485C7.49539 46.4875 7.78557 47.2161 8.10358 47.9327L7.64623 48.1448L7.85653 48.5984C8.33362 49.6274 8.86771 50.6309 9.45689 51.6041L9.71585 52.0318L10.1471 51.7707C10.5632 52.4331 11.0056 53.0807 11.4737 53.7116L11.0738 54.0186L11.3783 54.4152C11.7234 54.8647 12.0815 55.3056 12.4524 55.7372C12.8233 56.1689 13.2052 56.5893 13.5976 56.9981L13.9439 57.3588L14.3076 57.0097C14.8609 57.5674 15.4344 58.1023 16.0267 58.6134L15.7037 59.0004L16.0875 59.3208C16.9609 60.0498 17.8725 60.7288 18.818 61.3554L19.2348 61.6316L19.5133 61.2114C20.1738 61.6336 20.8505 62.0302 21.5417 62.4001L21.3112 62.8485L21.7558 63.0771C22.7645 63.5958 23.8025 64.0594 24.8653 64.4651L25.3324 64.6434L25.5122 64.1725C26.2475 64.4394 26.9945 64.6784 27.7515 64.8886L27.6246 65.3765L28.1085 65.5023C28.657 65.6449 29.2104 65.7727 29.7682 65.8854C30.3261 65.998 30.8857 66.095 31.4465 66.1764L31.9413 66.2482L32.0137 65.7493C32.793 65.8494 33.5741 65.9189 34.3555 65.9582L34.3384 66.4621L34.8381 66.479C35.9751 66.5175 37.1116 66.493 38.2425 66.4064L38.7411 66.3682L38.7026 65.8656C39.4832 65.7928 40.2607 65.6899 41.0333 65.5571L41.1269 66.0524L41.6182 65.9596C42.7327 65.749 43.8365 65.477 44.9243 65.144L45.4024 64.9977L45.2548 64.5157C45.999 64.2744 46.7352 64.004 47.4616 63.7047L47.6613 64.1676L48.1204 63.9695C48.6407 63.745 49.1558 63.5058 49.6652 63.2519C50.1745 62.998 50.6756 62.7307 51.1681 62.4503L51.6026 62.2029L51.3532 61.7648C52.0294 61.3649 52.6885 60.9398 53.329 60.4908L53.6252 60.8987L54.0298 60.605C54.9504 59.9368 55.8321 59.2191 56.6711 58.4559L57.041 58.1194L56.7017 57.7465C57.2729 57.2095 57.8231 56.6506 58.351 56.071L58.7292 56.4043L59.0598 56.0292C59.8098 55.1782 60.5134 54.2854 61.167 53.3543L61.4543 52.9451L61.0417 52.6554C61.4806 52.0078 61.8953 51.3422 62.2844 50.6597L62.7264 50.9022L62.9669 50.4638C63.2395 49.967 63.4989 49.4617 63.7447 48.9484C63.9905 48.4352 64.2216 47.9163 64.4379 47.3925L64.6287 46.9304L64.1627 46.738C64.4505 46.007 64.7093 45.2666 64.9387 44.5187L65.423 44.6586L65.5618 44.1783C65.8775 43.0854 66.1322 41.9775 66.3251 40.8598L66.4102 40.367L65.9134 40.2813C66.034 39.5066 66.1247 38.7276 66.1851 37.946L66.6883 37.9765L66.7186 37.4774C66.7874 36.3453 66.7939 35.2085 66.7374 34.0723L66.7127 33.5729L66.2092 33.5979C66.1575 32.8173 66.0756 32.0374 65.9633 31.2598L66.461 31.1795L66.3814 30.6859C66.3176 30.2904 66.246 29.8956 66.1667 29.5018L66.3717 29.457L66.5633 29.4151L66.7604 29.3721C66.8134 29.6346 66.863 29.8976 66.9092 30.1609L66.9956 30.6533L67.4843 30.5676Z" stroke="#FEFEFF" stroke-linecap="square" stroke-dasharray="3 3"/>
<rect x="50" y="8" width="4" height="4" rx="1" fill="url(#paint0_linear_576_2815)" fill-opacity="0.84"/>
<rect x="56" y="14" width="8" height="8" rx="2" fill="url(#paint1_linear_576_2815)" fill-opacity="0.84"/>
</g>
<defs>
<linearGradient id="paint0_linear_576_2815" x1="54" y1="8.83333" x2="52.8333" y2="11.6667" gradientUnits="userSpaceOnUse">
<stop stop-color="#BBD5F7"/>
<stop offset="1" stop-color="#F5F5F5"/>
</linearGradient>
<linearGradient id="paint1_linear_576_2815" x1="64" y1="15.6667" x2="61.6667" y2="21.3333" gradientUnits="userSpaceOnUse">
<stop stop-color="#BBD5F7"/>
<stop offset="1" stop-color="#F5F5F5"/>
</linearGradient>
<clipPath id="clip0_576_2815">
<rect width="72" height="72" fill="white"/>
</clipPath>
</defs>
</svg>
