<svg width="48" height="48" viewBox="0 0 48 48" fill="none" xmlns="http://www.w3.org/2000/svg">
<g clip-path="url(#clip0_587_2996)">
<path d="M16.4663 28.6486C15.4923 28.6486 14.5716 28.4888 13.7041 28.1692C12.8519 27.8496 12.1594 27.3931 11.6268 26.7995C11.0941 26.206 10.8278 25.5059 10.8278 24.6993C10.8278 24.4406 10.8734 24.1667 10.9647 23.8775C11.0865 23.4818 11.2235 23.284 11.3756 23.284C11.6039 23.284 11.7181 23.4133 11.7181 23.6721C11.7181 23.7786 11.6876 23.9232 11.6268 24.1058C11.5659 24.2884 11.5354 24.4634 11.5354 24.6308C11.5354 25.3005 11.7637 25.8864 12.2203 26.3886C12.6769 26.8756 13.2628 27.2485 13.9781 27.5072C14.7086 27.7659 15.4695 27.8953 16.2609 27.8953C17.9806 27.8953 19.4416 27.4844 20.6439 26.6626C21.2679 26.2364 21.7853 25.7266 22.1962 25.1331C22.6071 24.5243 22.8126 23.8775 22.8126 23.1927C22.8126 22.5687 22.6528 22.0512 22.3332 21.6403C22.0288 21.2294 21.6027 20.8794 21.0548 20.5902C20.5069 20.2859 19.8754 20.0119 19.1601 19.7684C17.1207 19.0531 16.1011 18.1857 16.1011 17.166C16.1011 16.6181 16.3065 16.0931 16.7174 15.5909C17.1284 15.0886 17.6306 14.6473 18.2241 14.2668C18.8176 13.8711 19.3883 13.5744 19.9362 13.3765C20.7428 13.0721 21.4885 12.8667 22.1734 12.7602C22.8735 12.6384 23.5203 12.5775 24.1138 12.5775C24.9204 12.5775 25.4911 12.7678 25.8259 13.1482C26.1607 13.5135 26.3281 13.9701 26.3281 14.5179C26.3281 14.9441 26.2216 15.355 26.0085 15.7507C25.8107 16.1463 25.5368 16.4888 25.1867 16.7779C24.791 17.1127 24.4714 17.2802 24.2279 17.2802C23.9692 17.2802 23.8399 17.1584 23.8399 16.9149C23.8399 16.7779 23.9083 16.679 24.0453 16.6181C25.065 16.1007 25.5748 15.393 25.5748 14.4951C25.5748 14.0994 25.4607 13.8103 25.2324 13.6276C25.0193 13.4298 24.6465 13.3309 24.1138 13.3309C23.6268 13.3309 23.0789 13.3841 22.4702 13.4907C21.8766 13.5972 21.2679 13.757 20.6439 13.9701C20.096 14.1679 19.5405 14.4342 18.9774 14.769C18.4143 15.1039 17.9426 15.4691 17.5621 15.8648C17.1968 16.2605 17.0142 16.6562 17.0142 17.0519C17.0142 17.8889 17.8208 18.5585 19.434 19.0608C22.219 19.9434 23.6116 21.2979 23.6116 23.1242C23.6116 23.6721 23.4822 24.2123 23.2235 24.745C22.98 25.2776 22.6528 25.7646 22.2419 26.206C21.8462 26.6473 21.4201 27.0278 20.9635 27.3474C20.3091 27.804 19.5938 28.1312 18.8176 28.329C18.0567 28.5421 17.2729 28.6486 16.4663 28.6486Z" fill="#FEFEFF"/>
<path d="M23.3278 36.9676C22.6125 36.9676 22.2548 36.4578 22.2548 35.4381C22.2548 34.0988 22.8408 31.9682 24.0126 29.0462C24.2105 28.5592 24.4463 28.0494 24.7203 27.5167C24.9942 26.984 25.3138 26.4209 25.6791 25.8274C26.0595 25.1882 26.4172 24.6327 26.752 24.1609C27.102 23.6892 27.4064 23.3087 27.6651 23.0195C27.7564 22.9282 27.8325 22.8673 27.8934 22.8369C27.9695 22.8065 28.0304 22.7913 28.076 22.7913C28.4717 22.7913 28.9207 22.9054 29.4229 23.1337C29.9251 23.362 30.3741 23.6511 30.7698 24.0012C31.135 24.3055 31.4318 24.6708 31.6601 25.0969C31.8884 25.523 32.0025 25.9644 32.0025 26.4209C32.0025 26.7558 31.934 27.0982 31.797 27.4482C31.6753 27.783 31.5079 28.1178 31.2948 28.4527C31.6905 28.3766 32.1699 28.2015 32.733 27.9276C33.3113 27.6537 33.8972 27.2351 34.4908 26.6721C34.5516 26.6112 34.6353 26.5807 34.7419 26.5807C34.9702 26.5807 35.0843 26.6721 35.0843 26.8547C35.0843 26.9308 35.0463 27.0297 34.9702 27.1514C34.9093 27.258 34.7951 27.3949 34.6277 27.5624C33.5015 28.5972 32.1471 29.1908 30.5643 29.343C30.336 29.5865 30.0849 29.8223 29.811 30.0506C29.5523 30.2637 29.2783 30.4615 28.9892 30.6442C28.1065 31.1768 27.3531 31.4432 26.7292 31.4432C26.4705 31.4432 26.2574 31.3594 26.09 31.192C25.9226 31.0246 25.8389 30.8344 25.8389 30.6213C25.8389 29.9213 26.4476 29.3886 27.6651 29.0234C28.1065 28.9016 28.5478 28.7951 28.9892 28.7038C29.4305 28.6125 29.8642 28.5135 30.2904 28.407C30.5948 27.9352 30.8154 27.5243 30.9524 27.1743C31.1046 26.8242 31.1807 26.5275 31.1807 26.284C31.1807 25.4774 30.5795 24.7088 29.3772 23.9783C28.9055 23.6892 28.5326 23.5522 28.2587 23.5674C27.0107 24.9371 25.8313 26.8547 24.7203 29.3201C23.5637 31.8617 22.9853 33.8629 22.9853 35.3239C22.9853 35.674 23.0158 35.9099 23.0767 36.0316C23.1375 36.1534 23.2441 36.2143 23.3963 36.2143C23.4419 36.2143 23.48 36.2066 23.5104 36.1914C23.5408 36.1914 23.5713 36.1914 23.6017 36.1914C23.7995 36.1914 23.8985 36.3132 23.8985 36.5567C23.8985 36.8306 23.7082 36.9676 23.3278 36.9676ZM26.889 30.7126C27.4521 30.7126 28.2663 30.2713 29.3316 29.3886C29.0881 29.419 28.8522 29.4571 28.6239 29.5028C28.4109 29.5484 28.0989 29.6321 27.688 29.7539C27.0031 29.9517 26.6607 30.2028 26.6607 30.5072C26.6607 30.6442 26.7368 30.7126 26.889 30.7126Z" fill="#FEFEFF"/>
<path d="M44.9895 20.3785C45.0472 20.7405 45.0955 21.1033 45.1344 21.4666L44.805 21.4966L44.8353 21.8286C44.888 22.4062 44.9166 22.9848 44.9214 23.5629L44.9241 23.8962L45.2548 23.8935C45.2521 24.2596 45.24 24.6255 45.2185 24.9906L44.8887 24.966L44.8639 25.2984C44.8208 25.8759 44.7539 26.4513 44.6632 27.0233L44.6111 27.3525L44.9377 27.4042C44.8748 27.7646 44.8027 28.1234 44.7212 28.4804L44.4 28.4018L44.3208 28.7256C44.1835 29.2872 44.0228 29.8437 43.8389 30.3938L43.7332 30.71L44.0469 30.8148C43.9256 31.1595 43.7953 31.5016 43.6561 31.8406L43.3522 31.7102L43.2207 32.0166C43.1068 32.2822 42.9871 32.5458 42.8619 32.8074C42.7366 33.0689 42.6062 33.3274 42.4706 33.5827L42.3144 33.8771L42.6065 34.0322C42.4296 34.3532 42.2447 34.6691 42.0522 34.9796L41.7738 34.801L41.5938 35.0815C41.2804 35.5696 40.9475 36.0437 40.596 36.5027L40.3934 36.7673L40.656 36.9684C40.4289 37.2556 40.1945 37.5368 39.9532 37.8116L39.7081 37.5896L39.4843 37.8366C39.0955 38.2657 38.6891 38.6786 38.2661 39.0741L38.0227 39.3018L38.2486 39.5433C37.9776 39.789 37.7001 40.0277 37.4166 40.2593L37.2114 39.9999L36.9499 40.2067C36.4965 40.5654 36.0278 40.9057 35.5447 41.2268L35.267 41.4113L35.4501 41.6867C35.1426 41.8842 34.8297 42.074 34.5115 42.2559L34.3518 41.9663L34.0599 42.1272C33.8068 42.2667 33.5504 42.4012 33.2909 42.5306C33.0313 42.66 32.7696 42.7837 32.5058 42.9019L32.2016 43.0381L32.3368 43.34C31.9999 43.4846 31.66 43.6202 31.3173 43.7469L31.2075 43.4349L30.893 43.5456C30.3459 43.7381 29.7919 43.9076 29.2326 44.0538L28.9101 44.138L28.9938 44.458C28.6381 44.5451 28.2804 44.6229 27.9212 44.6915L27.8642 44.3657L27.5359 44.423C26.9654 44.5227 26.3911 44.5987 25.8144 44.6509L25.4824 44.6809L25.5123 45.0103C25.1475 45.0376 24.7819 45.0554 24.4159 45.0639L24.4134 44.7332L24.08 44.7357C23.502 44.7401 22.923 44.7206 22.3446 44.677L22.0122 44.652L21.9873 44.9817C21.6235 44.9486 21.2599 44.9061 20.8971 44.8541L20.9491 44.5275L20.6199 44.4751C20.3345 44.4296 20.0495 44.3782 19.7653 44.3208C19.481 44.2634 19.1985 44.2002 18.9178 44.1313L18.5941 44.0519L18.5152 44.3731C18.1607 44.2802 17.8091 44.1783 17.4609 44.0677L17.566 43.7541L17.2499 43.6482C16.6999 43.4639 16.1587 43.2572 15.6276 43.0289L15.3214 42.8972L15.1908 43.201C14.8567 43.0512 14.5267 42.8928 14.2011 42.7261L14.3564 42.4341L14.0621 42.2776C13.5508 42.0057 13.051 41.7128 12.564 41.3996L12.2836 41.2193L12.1047 41.4975C11.8002 41.2949 11.5007 41.0844 11.2067 40.8662L11.408 40.6037L11.1435 40.4009C10.6847 40.0491 10.2399 39.678 9.81036 39.2882L9.56351 39.0642L9.34126 39.3091C9.07455 39.0594 8.81387 38.8024 8.55954 38.5385L8.80126 38.3127L8.57376 38.0691C8.3765 37.8579 8.18329 37.6422 7.9943 37.4223C7.80532 37.2023 7.62122 36.9789 7.44207 36.752L7.23547 36.4905L6.97593 36.6955C6.75326 36.4043 6.53849 36.1079 6.33175 35.8066L6.60734 35.6238L6.42306 35.346C6.10239 34.8627 5.80243 34.3671 5.52373 33.8606L5.36303 33.5686L5.07327 33.728C4.90178 33.4045 4.73874 33.0768 4.58428 32.7452L4.88622 32.6103L4.75019 32.306C4.51389 31.7773 4.29955 31.2391 4.10773 30.6927L3.99731 30.3782L3.68525 30.4878C3.56949 30.1408 3.46261 29.7907 3.36475 29.4379L3.68479 29.3545L3.60073 29.0319C3.45494 28.4725 3.33207 27.9064 3.23268 27.3349L3.17556 27.0065L2.84972 27.0632C2.79274 26.7023 2.74496 26.3394 2.7065 25.9749L3.03591 25.9453L3.00612 25.6133C2.98029 25.3254 2.96036 25.0366 2.94641 24.7469C2.93245 24.4573 2.92452 24.1679 2.92255 23.8788L2.92028 23.5455L2.58956 23.5478C2.5928 23.1812 2.60547 22.8154 2.62749 22.4507L2.95726 22.4758L2.98254 22.1434C3.02654 21.565 3.09441 20.9897 3.18574 20.4189L3.2384 20.0897L2.91182 20.0375C2.97531 19.6769 3.04804 19.3182 3.12991 18.9617L3.45105 19.0407L3.53072 18.717C3.66913 18.1548 3.83074 17.5984 4.01512 17.0495L4.12125 16.7335L3.80774 16.6282C3.92961 16.2833 4.06039 15.9415 4.19998 15.603L4.50372 15.7338L4.6356 15.4277C4.86432 14.8968 5.11525 14.3746 5.38796 13.8627L5.54469 13.5685L5.2528 13.413C5.42961 13.0933 5.61489 12.7776 5.80854 12.4664L6.08658 12.6454L6.26708 12.3652C6.42359 12.1222 6.58535 11.8821 6.75232 11.645C6.91929 11.4079 7.09086 11.1747 7.26691 10.9455L7.46993 10.6811L7.20762 10.4796C7.4354 10.1924 7.67017 9.91164 7.91164 9.63742L8.1564 9.85985L8.38058 9.61315C8.77067 9.18389 9.17772 8.77169 9.60053 8.37744L9.84433 8.15012L9.61878 7.90823C9.89044 7.66274 10.1682 7.42442 10.4519 7.19346L10.6567 7.45316L10.9184 7.24675C11.3731 6.88819 11.8425 6.54857 12.3252 6.22879L12.6031 6.04471L12.4205 5.76898C12.7285 5.57178 13.0418 5.38242 13.3599 5.20114L13.5191 5.49101L13.8113 5.33052C14.318 5.05217 14.8368 4.79441 15.3665 4.5581L15.6709 4.4223L15.5362 4.12026C15.8721 3.97664 16.2123 3.84144 16.5563 3.71489L16.6656 4.02703L16.9802 3.91684C17.253 3.82131 17.5281 3.73125 17.8056 3.64679C18.083 3.56233 18.3616 3.48376 18.6414 3.41107L18.964 3.32725L18.8808 3.00715C19.237 2.92052 19.5948 2.84323 19.9538 2.77526L20.0102 3.10114L20.3387 3.04426C20.9102 2.94528 21.4846 2.87019 22.0604 2.81895L22.3925 2.78941L22.3631 2.45998C22.7283 2.43323 23.0939 2.41589 23.4596 2.40797L23.4616 2.73869L23.7949 2.73668C24.374 2.73317 24.953 2.75362 25.5303 2.79796L25.8627 2.82349L25.888 2.49373C26.2522 2.52743 26.6157 2.57052 26.9781 2.62296L26.9256 2.9495L27.2547 3.0024C27.8255 3.09413 28.3932 3.20955 28.9563 3.3486L29.2799 3.42851L29.3592 3.10743C29.7125 3.20055 30.0639 3.30289 30.4131 3.41443L30.3076 3.72786L30.6235 3.83424C30.7924 3.89111 30.9607 3.95019 31.1284 4.01146L31.0802 4.13708L31.0334 4.25918L30.9833 4.38979C30.7317 4.29795 30.4787 4.21116 30.2245 4.12943L29.9071 4.02741L29.8043 4.34737C29.3031 4.19531 28.7972 4.06306 28.2879 3.95069L28.3549 3.62136L28.0283 3.5549C27.2851 3.40369 26.5353 3.29388 25.7822 3.2256L25.4502 3.19549L25.4199 3.53019C24.8986 3.49156 24.3761 3.47311 23.8535 3.47487L23.8468 3.13886L23.5135 3.14547C22.7575 3.16047 22.0018 3.2171 21.2498 3.31551L20.9193 3.35876L20.9629 3.69199C20.4469 3.76816 19.933 3.86439 19.4224 3.98071L19.3423 3.6543L19.0186 3.73367C18.6517 3.82363 18.2865 3.92385 17.9236 4.03436C17.5606 4.14486 17.2016 4.26513 16.8468 4.39491L16.5337 4.50942L16.6492 4.82504C16.1603 5.01304 15.68 5.21952 15.2091 5.4438L15.0596 5.1428L14.7611 5.29107C14.0819 5.62843 13.4228 6.00255 12.7867 6.4114L12.5063 6.59164L12.688 6.87435C12.253 7.16414 11.8294 7.47066 11.4182 7.7932L11.2065 7.5322L10.9476 7.74219C10.3603 8.21856 9.7989 8.72761 9.26608 9.26731L9.0319 9.50452L9.27106 9.74063C8.9108 10.1178 8.56449 10.5094 8.23307 10.915L7.96937 10.7067L7.76272 10.9682C7.52851 11.2646 7.30201 11.5681 7.08356 11.8783C6.86511 12.1885 6.65574 12.504 6.45557 12.8244L6.27895 13.1071L6.56397 13.2851C6.2938 13.7338 6.04172 14.1919 5.80804 14.6581L5.50515 14.5125L5.36073 14.813C5.03213 15.4965 4.74204 16.1966 4.49141 16.91L4.38093 17.2245L4.698 17.3359C4.53291 17.8318 4.38705 18.3339 4.26078 18.8411L3.93337 18.7653L3.85816 19.09C3.68756 19.8267 3.5574 20.5733 3.46866 21.3265L3.42965 21.6575L3.76342 21.6968C3.71092 22.2157 3.67837 22.7375 3.6661 23.2611L3.33003 23.2588L3.3277 23.5921C3.32506 23.9699 3.33281 24.3485 3.35107 24.7274C3.36933 25.1064 3.39801 25.484 3.43696 25.8597L3.47132 26.1913L3.8056 26.1566C3.86816 26.6767 3.95073 27.1929 4.05287 27.7044L3.72443 27.7756L3.79508 28.1014C3.95583 28.8425 4.15716 29.5732 4.39779 30.29L4.50387 30.606L4.82247 30.4991C4.99693 30.9917 5.19038 31.4775 5.40238 31.9552L5.09748 32.0966L5.23769 32.399C5.55574 33.085 5.91181 33.754 6.30459 34.4028L6.47723 34.6879L6.76472 34.5139C7.04214 34.9555 7.33709 35.3872 7.64915 35.8078L7.38257 36.0125L7.58554 36.2769C7.81559 36.5766 8.05432 36.8705 8.30158 37.1582C8.54884 37.446 8.80347 37.7263 9.06509 37.9988L9.29593 38.2393L9.53837 38.0065C9.90725 38.3784 10.2896 38.7349 10.6845 39.0757L10.4691 39.3337L10.725 39.5473C11.3072 40.0333 11.915 40.486 12.5454 40.9037L12.8232 41.0878L13.0089 40.8077C13.4492 41.0892 13.9003 41.3535 14.3611 41.6002L14.2074 41.899L14.5039 42.0515C15.1763 42.3973 15.8683 42.7063 16.5768 42.9768L16.8883 43.0957L17.0081 42.7817C17.4984 42.9597 17.9963 43.119 18.501 43.2592L18.4164 43.5844L18.739 43.6683C19.1046 43.7634 19.4736 43.8486 19.8455 43.9237C20.2174 43.9988 20.5905 44.0634 20.9643 44.1177L21.2942 44.1656L21.3425 43.833C21.862 43.8997 22.3828 43.946 22.9036 43.9722L22.8923 44.3081L23.2254 44.3194C23.9834 44.3451 24.7411 44.3288 25.495 44.271L25.8274 44.2455L25.8017 43.9105C26.3221 43.862 26.8404 43.7934 27.3555 43.7048L27.4179 44.035L27.7455 43.9732C28.4885 43.8328 29.2243 43.6514 29.9495 43.4294L30.2683 43.3319L30.1699 43.0105C30.666 42.8497 31.1568 42.6694 31.6411 42.4699L31.7742 42.7785L32.0803 42.6464C32.4271 42.4968 32.7706 42.3373 33.1101 42.168C33.4497 41.9988 33.7837 41.8205 34.112 41.6336L34.4017 41.4687L34.2354 41.1766C34.6863 40.91 35.1256 40.6266 35.5527 40.3272L35.7501 40.5992L36.0199 40.4034C36.6336 39.9579 37.2214 39.4795 37.7807 38.9707L38.0273 38.7464L37.8012 38.4978C38.1819 38.1397 38.5487 37.7671 38.9007 37.3807L39.1528 37.6029L39.3732 37.3529C39.8732 36.7856 40.3422 36.1903 40.778 35.5696L40.9695 35.2968L40.6945 35.1037C40.9871 34.672 41.2635 34.2282 41.523 33.7732L41.8176 33.9349L41.9779 33.6426C42.1596 33.3114 42.3326 32.9745 42.4965 32.6324C42.6604 32.2902 42.8144 31.9443 42.9586 31.5951L43.0858 31.287L42.7751 31.1587C42.967 30.6714 43.1395 30.1778 43.2925 29.6792L43.6154 29.7725L43.7079 29.4523C43.9184 28.7237 44.0881 27.9851 44.2167 27.2399L44.2734 26.9114L43.9423 26.8543C44.0227 26.3378 44.0831 25.8185 44.1234 25.2974L44.4588 25.3178L44.4791 24.985C44.5249 24.2303 44.5292 23.4724 44.4916 22.715L44.4751 22.382L44.1394 22.3987C44.105 21.8783 44.0504 21.3583 43.9756 20.8399L44.3073 20.7864L44.2543 20.4574C44.2117 20.1937 44.164 19.9305 44.1111 19.6679L44.2478 19.6381L44.3755 19.6102L44.507 19.5815C44.5423 19.7565 44.5754 19.9318 44.6062 20.1073L44.6638 20.4356L44.9895 20.3785Z" stroke="#FEFEFF" stroke-width="0.666667" stroke-linecap="square" stroke-dasharray="2 2"/>
<rect x="33.334" y="5.3335" width="2.66667" height="2.66667" rx="0.666667" fill="url(#paint0_linear_587_2996)" fill-opacity="0.84"/>
<rect x="37.334" y="9.3335" width="5.33333" height="5.33333" rx="1.33333" fill="url(#paint1_linear_587_2996)" fill-opacity="0.84"/>
</g>
<defs>
<linearGradient id="paint0_linear_587_2996" x1="36.0007" y1="5.88905" x2="35.2229" y2="7.77794" gradientUnits="userSpaceOnUse">
<stop stop-color="#BBD5F7"/>
<stop offset="1" stop-color="#F5F5F5"/>
</linearGradient>
<linearGradient id="paint1_linear_587_2996" x1="42.6673" y1="10.4446" x2="41.1118" y2="14.2224" gradientUnits="userSpaceOnUse">
<stop stop-color="#BBD5F7"/>
<stop offset="1" stop-color="#F5F5F5"/>
</linearGradient>
<clipPath id="clip0_587_2996">
<rect width="48" height="48" fill="white"/>
</clipPath>
</defs>
</svg>
