<svg width="204" height="38" viewBox="0 0 204 38" fill="none" xmlns="http://www.w3.org/2000/svg">
<path d="M90.1758 19L92.9688 5.03516H98.8281C101.549 5.03516 102.653 6.31445 102.139 8.87305C101.637 11.3926 99.1406 12.9974 94.6484 13.6875L94.6582 12.75C98.4733 12.2357 100.583 10.9694 100.986 8.95117C101.383 6.94596 100.547 5.94336 98.4766 5.94336H93.8086L91.2012 19H90.1758ZM106.631 5.03516L106.396 6.20703H105.176L105.41 5.03516H106.631ZM105.791 8.74609L103.74 19H102.715L104.766 8.74609H105.791ZM109.414 7.08594H110.039L109.893 8.74609H112.871L112.695 9.625H109.902L108.604 16.0996C108.337 17.4473 108.698 18.1211 109.688 18.1211H110.996L110.82 19H109.531C107.865 19 107.217 18.0788 107.588 16.2363L109.414 7.08594ZM119.385 8.74609C121.872 8.74609 122.936 9.63802 122.578 11.4219C122.207 13.2708 120.817 14.1953 118.408 14.1953H114.697C114.176 16.8125 115.14 18.1211 117.588 18.1211C118.949 18.1211 120.173 17.6654 121.26 16.7539L121.064 17.7305C119.99 18.5768 118.773 19 117.412 19C114.281 19 113.063 17.252 113.76 13.7559C114.43 10.416 116.305 8.74609 119.385 8.74609ZM114.883 13.2773H118.574C120.312 13.2773 121.309 12.6491 121.562 11.3926C121.797 10.2012 121.012 9.60547 119.209 9.60547C116.93 9.60547 115.488 10.8294 114.883 13.2773ZM123.711 19L125.762 8.74609H126.592L126.055 12.3984C127.461 9.96354 128.958 8.74609 130.547 8.74609L130.342 9.76172C128.792 9.76172 127.305 10.9434 125.879 13.3066L124.736 19H123.711ZM131.68 17.7988C132.754 17.9876 133.714 18.082 134.561 18.082C136.839 18.082 138.285 16.5553 138.896 13.502C139.398 10.9824 138.844 9.72266 137.236 9.72266C135.843 9.72266 134.365 10.5495 132.803 12.2031L131.68 17.7988ZM133.203 5.03516H134.229L132.998 11.1875C134.619 9.5599 136.133 8.74609 137.539 8.74609C139.74 8.74609 140.521 10.3542 139.883 13.5703C139.154 17.1901 137.347 19 134.463 19C132.992 19 131.67 18.86 130.498 18.5801L133.203 5.03516ZM151.729 8.74609L149.678 19H148.848L149.268 15.9336C147.66 17.9779 145.934 19 144.092 19C142.314 19 141.624 18.0072 142.021 16.0215L143.477 8.74609H144.502L143.047 16.0215C142.773 17.3952 143.2 18.082 144.326 18.082C146.143 18.082 147.861 16.998 149.482 14.8301L150.703 8.74609H151.729ZM152.812 19L154.863 8.74609H155.693L155.156 12.3984C156.562 9.96354 158.06 8.74609 159.648 8.74609L159.443 9.76172C157.894 9.76172 156.406 10.9434 154.98 13.3066L153.838 19H152.812ZM159.512 19L162.305 5.03516H163.33L161.973 11.8125C163.581 9.76823 165.241 8.74609 166.953 8.74609C168.861 8.74609 169.616 9.73893 169.219 11.7246L167.764 19H166.738L168.193 11.7246C168.467 10.3509 167.975 9.66406 166.719 9.66406C165.033 9.66406 163.379 10.748 161.758 12.916L160.537 19H159.512Z" fill="#FEFEFF"/>
<path d="M18.1758 18.5117L18.3906 17.4375C19.7513 17.9583 21.3138 18.2188 23.0781 18.2188C26.0013 18.2188 27.6842 17.112 28.127 14.8984C28.4525 13.2708 27.6647 12.457 25.7637 12.457H22.8926C20.2949 12.457 19.2305 11.2852 19.6992 8.94141C20.2331 6.27214 22.4043 4.9375 26.2129 4.9375C27.7754 4.9375 29.25 5.13281 30.6367 5.52344L30.4414 6.5C29.0677 6.04427 27.5996 5.81641 26.0371 5.81641C22.9121 5.81641 21.1413 6.85807 20.7246 8.94141C20.3861 10.6341 21.1738 11.4805 23.0879 11.4805H25.959C28.5436 11.4805 29.6081 12.6198 29.1523 14.8984C28.5924 17.6979 26.5091 19.0977 22.9023 19.0977C21.138 19.0977 19.5625 18.9023 18.1758 18.5117ZM39.6406 9.89844C38.7943 9.74219 37.9154 9.66406 37.0039 9.66406C34.5625 9.66406 33.0618 11.0736 32.502 13.8926C31.9486 16.6465 32.5085 18.0234 34.1816 18.0234C35.7702 18.0234 37.2155 17.1966 38.5176 15.543L39.6406 9.89844ZM38.8496 19H38.0195L38.3125 16.5586C36.9583 18.1862 35.513 19 33.9766 19C31.6458 19 30.819 17.304 31.4961 13.9121C32.1862 10.4681 34.11 8.74609 37.2676 8.74609C38.6543 8.74609 39.8359 8.88607 40.8125 9.16602L38.8496 19ZM41.9844 19L44.0352 8.74609H44.8652L44.4453 11.8125C46.0534 9.76823 47.7135 8.74609 49.4258 8.74609C51.3333 8.74609 52.0885 9.73893 51.6914 11.7246L50.2363 19H49.2109L50.666 11.7246C50.9395 10.3509 50.4479 9.66406 49.1914 9.66406C47.5052 9.66406 45.8516 10.748 44.2305 12.916L43.0098 19H41.9844ZM53.2734 19L56.0664 5.03516H57.0918L55.8027 11.5C57.4238 9.66406 59.1133 8.74609 60.8711 8.74609C62.7721 8.74609 63.5436 9.63477 63.1855 11.4121C62.8861 12.9095 61.5124 14.0944 59.0645 14.9668L61.9258 19H60.666L58.0781 15.1426L58.2051 14.5273C60.5749 13.8047 61.89 12.7956 62.1504 11.5C62.3978 10.25 61.8379 9.625 60.4707 9.625C58.8887 9.625 57.2643 10.582 55.5977 12.4961L54.2988 19H53.2734ZM66.5742 7.08594H67.1992L67.0527 8.74609H70.0312L69.8555 9.625H67.0625L65.7637 16.0996C65.4967 17.4473 65.8581 18.1211 66.8477 18.1211H68.1562L67.9805 19H66.6914C65.0247 19 64.377 18.0788 64.748 16.2363L66.5742 7.08594Z" fill="#FEFEFF"/>
<rect x="75" y="15" width="4" height="4" fill="#BBD5F7" fill-opacity="0.84"/>
<rect x="81" y="9" width="4" height="4" fill="#BBD5F7" fill-opacity="0.84"/>
<path d="M75 10C75 9.44772 75.4477 9 76 9H79V12C79 12.5523 78.5523 13 78 13H75V10Z" fill="#FEFEFF"/>
<path d="M81 16C81 15.4477 81.4477 15 82 15H85V18C85 18.5523 84.5523 19 84 19H81V16Z" fill="#FEFEFF"/>
<path d="M169.95 22.4268C169.27 23.3153 167.9 23.8455 166.979 24.4143C163.307 26.6819 159.592 28.9443 155.781 30.9494C152.463 32.695 148.846 34.3185 145.194 35.1006C143.748 35.4103 141.663 35.8376 140.268 35.1719C139.432 34.7732 139.009 34.0613 139.76 33.2238C140.725 32.1467 142.25 31.6351 143.554 31.2327C147.052 30.153 150.736 29.7925 154.342 29.4788C160.558 28.938 166.755 28.8818 172.959 29.2006C174.475 29.2786 175.986 29.4233 177.502 29.496C177.7 29.5054 177.746 29.4978 177.876 29.3818" stroke="#BBD5F7" stroke-opacity="0.84" stroke-width="0.75" stroke-linecap="round"/>
</svg>
